<?xml version="1.0" encoding="utf-8"?>
<!-- Generator: Adobe Illustrator 21.0.2, SVG Export Plug-In . SVG Version: 6.00 Build 0)  -->
<!DOCTYPE svg PUBLIC "-//W3C//DTD SVG 1.1//EN" "http://www.w3.org/Graphics/SVG/1.1/DTD/svg11.dtd">
<svg version="1.1" id="Layer_1" xmlns="http://www.w3.org/2000/svg" xmlns:xlink="http://www.w3.org/1999/xlink" x="0px" y="0px"
	 width="500px" height="500px" viewBox="0 0 500 500" style="enable-background:new 0 0 500 500;" xml:space="preserve">
<style type="text/css">
	.st0{fill:#003649;}
	.st1{fill:#FFFFFF;}
	.st2{fill:#00A99D;}
	.st3{fill:#00232D;}
	.st4{fill:#004C6D;}
	.st5{fill:#005F93;}
	.st6{fill:#0071BC;}
	.st7{fill:#0080B4;}
	.st8{fill:#0097A7;}
</style>
<g>
	<g>
		<path class="st0" d="M77.3,311.1c14.5,0,23.9,8.6,23.9,22c0,13.4-9.6,22-24.5,22H57.6v-44H77.3z M72.2,343.8h5.5
			c5.3,0,8.7-4.1,8.7-10.6c0-6.5-3.7-10.8-9.4-10.8h-4.8V343.8z"/>
		<path class="st0" d="M151.4,333c0,13.1-10.2,22.7-24.2,22.7c-14,0-24.2-9.5-24.2-22.7c0-13.1,10.2-22.4,24.2-22.4
			C141.2,310.6,151.4,320,151.4,333z M118,333.1c0,6,4.4,10.5,9.4,10.5c5,0,9-4.5,9-10.5c0-6-4-10.4-9-10.4
			C122.4,322.7,118,327.1,118,333.1z"/>
		<path class="st0" d="M193,355l-6.1-26.3l-6.3,26.3h-15l-14.2-44H167l6.7,28.9l6.5-28.8l14.2-0.1l6.7,28.9l6.5-28.9h14.9L208,355
			H193z"/>
		<path class="st0" d="M255.8,355l-17.3-22.5V355h-13.2v-44h12.2l17.4,22.6v-22.6H268v44H255.8z"/>
		<path class="st0" d="M288.9,322.1v5.4h20.6v11h-20.6v5.5h23.2v11h-37.8v-44h37.2v11H288.9z"/>
		<path class="st0" d="M331.1,348.8l-2.3,6.2h-14.9l18.6-44h14.9l17.9,44h-15.5l-2.2-6.2H331.1z M339.5,325.6l-4.6,12.9h9.2
			L339.5,325.6z"/>
		<path class="st0" d="M406,315.6l-5.3,11c-4.5-2.4-11.3-5.1-15.1-5.1c-1.6,0-2.7,0.5-2.7,1.8c0,5.5,22.8,2.1,22.8,18
			c0,9.8-8.6,14.1-18.5,14.1c-7.7,0-16.2-2.6-22-7l5.4-10.9c4.5,3.8,12.3,6.8,16.8,6.8c2.1,0,3.5-0.7,3.5-2.3
			c0-5.7-22.8-1.9-22.8-17.4c0-8.8,7.4-14.3,18.8-14.3C393.9,310.4,401.1,312.5,406,315.6z"/>
		<path class="st0" d="M433.7,322.5V355h-14.6v-32.5h-12.5v-11.5h39.6v11.5H433.7z"/>
	</g>
	<g>
		<path class="st0" d="M103.2,413.4v-29l-9.1,23.9H82.7l-9.1-23.9v29H58.4v-53h18.5l11.6,27.6l11.6-27.6h18.5v53H103.2z"/>
		<path class="st0" d="M142.2,406l-2.7,7.5h-18l22.4-53h18l21.5,53h-18.7l-2.6-7.5H142.2z M152.4,377.9l-5.6,15.5h11L152.4,377.9z"
			/>
		<path class="st0" d="M210.6,399.7H204v13.7h-17.5v-53h25.6c14.4,0,22.6,6.9,22.6,19c0,7.7-2.9,13.4-8.4,16.8l10.4,17.2h-19.8
			L210.6,399.7z M212.1,386.4c3.8,0,6-2.3,6-6.4c0-3.9-2.2-6.2-6-6.2H204v12.6H212.1z"/>
		<path class="st0" d="M263.9,395.2l-5.1,5.7v12.5h-17.5v-53h17.5v18.4l15.8-18.4h20.2l-18.9,21.3l20,31.7h-20.9L263.9,395.2z"/>
		<path class="st0" d="M317.2,373.8v6.5H342v13.3h-24.8v6.6h27.9v13.3h-45.5v-53h44.8v13.3H317.2z"/>
		<path class="st0" d="M381,374.3v39.1h-17.5v-39.1h-15v-13.8h47.7v13.8H381z"/>
		<path class="st0" d="M446.3,366l-6.3,13.3c-5.4-2.9-13.6-6.2-18.2-6.2c-2,0-3.2,0.6-3.2,2.2c0,6.6,27.4,2.5,27.4,21.7
			c0,11.8-10.4,17-22.3,17c-9.2,0-19.5-3.1-26.5-8.5l6.5-13.1c5.4,4.5,14.8,8.2,20.2,8.2c2.6,0,4.2-0.8,4.2-2.7
			c0-6.9-27.4-2.3-27.4-20.9c0-10.6,8.9-17.2,22.7-17.2C431.6,359.7,440.3,362.2,446.3,366z"/>
	</g>
	<g>
		<path class="st0" d="M235.2,271.9c-8.5,7.7-18.5,13.9-29.5,18.7v5.8h59.6v-76.4C260.6,240.5,250.5,258.2,235.2,271.9z"/>
		<path class="st0" d="M370.8,86L325,165.5L279.1,86h-73.4v5.2c11.6,4.9,21.9,11.4,30.7,19.5c20,18.3,31.2,43.6,32.6,73.4l55.9,61.4
			l58.7-64.5v115.1h60.5V86H370.8z"/>
		<path class="st0" d="M230.6,114.6c-7.3-6.7-15.7-12.2-25-16.6c-16.8-7.9-36.6-12-58.7-12H53.7v210.1h90.4
			c23.3,0,44.1-4.4,61.6-12.7c9-4.3,17.2-9.6,24.3-16.1c20.7-18.6,31.7-45.1,31.7-76.5C261.6,159.6,250.9,133.2,230.6,114.6z
			 M148.8,250.3H116V131.9h29.4c31.3,0,52.4,24,52.4,59.6C197.8,227.2,178.6,250.3,148.8,250.3z"/>
		<polyline class="st1" points="436.6,241.1 436.6,288 389.7,288 		"/>
	</g>
</g>
</svg>
