<?xml version="1.0" encoding="utf-8"?>
<!-- Generator: Adobe Illustrator 21.0.2, SVG Export Plug-In . SVG Version: 6.00 Build 0)  -->
<!DOCTYPE svg PUBLIC "-//W3C//DTD SVG 1.1//EN" "http://www.w3.org/Graphics/SVG/1.1/DTD/svg11.dtd">
<svg version="1.1" id="Layer_1" xmlns="http://www.w3.org/2000/svg" xmlns:xlink="http://www.w3.org/1999/xlink" x="0px" y="0px"
	 width="500px" height="168px" viewBox="0 0 500 168" style="enable-background:new 0 0 500 168;" xml:space="preserve">
<style type="text/css">
	.st0{fill:#003649;}
	.st1{fill:#FFFFFF;}
	.st2{fill:#00A99D;}
	.st3{fill:#00232D;}
	.st4{fill:#004C6D;}
	.st5{fill:#005F93;}
	.st6{fill:#0071BC;}
	.st7{fill:#0080B4;}
	.st8{fill:#0097A7;}
</style>
<g>
	<rect x="26.9" y="23.7" class="st2" width="446.3" height="120.6"/>
	<g>
		<path class="st1" d="M200.1,45.2c10.3,0,17,6.1,17,15.6c0,9.5-6.8,15.7-17.4,15.7h-13.6V45.2H200.1z M196.5,68.5h3.9
			c3.8,0,6.2-3,6.2-7.6c0-4.7-2.6-7.7-6.7-7.7h-3.4V68.5z"/>
		<path class="st1" d="M252.9,60.8c0,9.3-7.2,16.1-17.2,16.1c-10,0-17.2-6.8-17.2-16.1c0-9.3,7.2-16,17.2-16
			C245.7,44.8,252.9,51.6,252.9,60.8z M229.1,60.9c0,4.3,3.1,7.5,6.7,7.5c3.6,0,6.4-3.2,6.4-7.5s-2.9-7.4-6.4-7.4
			C232.2,53.5,229.1,56.6,229.1,60.9z"/>
		<path class="st1" d="M282.6,76.5l-4.3-18.7l-4.5,18.7h-10.7l-10.1-31.3H264l4.7,20.6l4.6-20.5l10.1,0l4.7,20.6l4.6-20.6h10.6
			l-10.2,31.3H282.6z"/>
		<path class="st1" d="M327.3,76.5l-12.3-16v16h-9.4V45.2h8.7l12.4,16.1V45.2h9.4v31.3H327.3z"/>
		<path class="st1" d="M350.8,53v3.8h14.7v7.9h-14.7v3.9h16.5v7.9h-26.9V45.2H367V53H350.8z"/>
		<path class="st1" d="M380.9,72.1l-1.6,4.4h-10.6l13.2-31.3h10.6l12.7,31.3h-11l-1.6-4.4H380.9z M386.9,55.5l-3.3,9.2h6.5
			L386.9,55.5z"/>
		<path class="st1" d="M434.3,48.4l-3.8,7.9c-3.2-1.7-8-3.7-10.8-3.7c-1.2,0-1.9,0.4-1.9,1.3c0,3.9,16.2,1.5,16.2,12.8
			c0,7-6.1,10.1-13.2,10.1c-5.5,0-11.5-1.8-15.7-5L409,64c3.2,2.7,8.8,4.9,11.9,4.9c1.5,0,2.5-0.5,2.5-1.6c0-4.1-16.2-1.4-16.2-12.4
			c0-6.3,5.3-10.2,13.4-10.2C425.6,44.7,430.8,46.2,434.3,48.4z"/>
		<path class="st1" d="M454,53.3v23.2h-10.4V53.3h-8.9v-8.2H463v8.2H454z"/>
	</g>
	<g>
		<path class="st1" d="M218.1,121.3v-20.7l-6.5,17h-8.2l-6.5-17v20.7h-10.9V83.5h13.2l8.2,19.7l8.2-19.7H229v37.8H218.1z"/>
		<path class="st1" d="M246,115.9l-1.9,5.3h-12.8l16-37.8H260l15.4,37.8H262l-1.9-5.3H246z M253.2,95.9l-4,11.1h7.9L253.2,95.9z"/>
		<path class="st1" d="M294.7,111.5H290v9.8h-12.5V83.5h18.3c10.2,0,16.1,4.9,16.1,13.5c0,5.5-2.1,9.6-6,12l7.4,12.3h-14.1
			L294.7,111.5z M295.8,102c2.7,0,4.3-1.7,4.3-4.6c0-2.8-1.6-4.4-4.3-4.4H290v9H295.8z"/>
		<path class="st1" d="M332.8,108.3l-3.7,4.1v8.9h-12.5V83.5h12.5v13.1l11.3-13.1h14.4l-13.5,15.2l14.3,22.6h-14.9L332.8,108.3z"/>
		<path class="st1" d="M370.8,93v4.6h17.7v9.5h-17.7v4.7h19.9v9.5h-32.5V83.5h32V93H370.8z"/>
		<path class="st1" d="M416.4,93.3v27.9h-12.5V93.3h-10.7v-9.9h34v9.9H416.4z"/>
		<path class="st1" d="M463,87.4l-4.5,9.5c-3.8-2.1-9.7-4.4-13-4.4c-1.4,0-2.3,0.4-2.3,1.6c0,4.7,19.6,1.8,19.6,15.5
			c0,8.4-7.4,12.1-15.9,12.1c-6.6,0-13.9-2.2-18.9-6l4.6-9.4c3.9,3.2,10.6,5.9,14.4,5.9c1.8,0,3-0.6,3-1.9c0-4.9-19.6-1.7-19.6-14.9
			c0-7.5,6.4-12.3,16.2-12.3C452.5,82.9,458.7,84.7,463,87.4z"/>
	</g>
	<g>
		<path class="st1" d="M105.6,112.8c-3.1,2.8-6.7,5.1-10.8,6.8v2.1h21.7V93.9C114.9,101.4,111.2,107.8,105.6,112.8z"/>
		<path class="st1" d="M155,45.2l-16.7,28.9l-16.7-28.9H94.9v1.9c4.2,1.8,8,4.1,11.2,7.1c7.3,6.7,11.3,15.9,11.9,26.7l20.4,22.3
			l21.4-23.5v41.9h22V45.2H155z"/>
		<path class="st1" d="M103.9,55.6c-2.6-2.4-5.7-4.4-9.1-6c-6.1-2.9-13.3-4.4-21.4-4.4H39.6v76.5h32.9c8.5,0,16-1.6,22.4-4.6
			c3.3-1.6,6.3-3.5,8.8-5.8c7.5-6.8,11.5-16.4,11.5-27.8C115.2,71.9,111.3,62.3,103.9,55.6z M74.2,104.9h-12V61.9h10.7
			c11.4,0,19.1,8.7,19.1,21.7C92,96.5,85,104.9,74.2,104.9z"/>
		<polyline class="st2" points="178.9,101.6 178.9,118.7 161.8,118.7 		"/>
	</g>
</g>
</svg>
