<?xml version="1.0" encoding="utf-8"?>
<!-- Generator: Adobe Illustrator 21.0.2, SVG Export Plug-In . SVG Version: 6.00 Build 0)  -->
<!DOCTYPE svg PUBLIC "-//W3C//DTD SVG 1.1//EN" "http://www.w3.org/Graphics/SVG/1.1/DTD/svg11.dtd">
<svg version="1.1" id="Layer_1" xmlns="http://www.w3.org/2000/svg" xmlns:xlink="http://www.w3.org/1999/xlink" x="0px" y="0px"
	 width="500px" height="500px" viewBox="0 0 500 500" style="enable-background:new 0 0 500 500;" xml:space="preserve">
<style type="text/css">
	.st0{fill:#003649;}
	.st1{fill:#FFFFFF;}
	.st2{fill:#00A99D;}
	.st3{fill:#00232D;}
	.st4{fill:#004C6D;}
	.st5{fill:#005F93;}
	.st6{fill:#0071BC;}
	.st7{fill:#0080B4;}
	.st8{fill:#0097A7;}
</style>
<g>
	<path class="st0" d="M236.2,330.7c-8.5,7.7-18.5,13.9-29.5,18.7v5.8h59.6v-76.4C261.6,299.3,251.5,317,236.2,330.7z"/>
	<path class="st0" d="M371.8,144.8L326,224.3l-45.9-79.5h-73.4v5.2c11.6,4.9,21.9,11.4,30.7,19.5c20,18.3,31.2,43.6,32.6,73.4
		l55.9,61.4l58.7-64.5v115.1h60.5V144.8H371.8z"/>
	<path class="st0" d="M231.7,173.4c-7.3-6.7-15.7-12.2-25-16.6c-16.8-7.9-36.6-12-58.7-12H54.7v210.1h90.4
		c23.3,0,44.1-4.4,61.6-12.7c9-4.3,17.2-9.6,24.3-16.1c20.7-18.6,31.7-45.1,31.7-76.5C262.6,218.4,251.9,192,231.7,173.4z
		 M149.9,309.1H117V190.7h29.4c31.3,0,52.4,24,52.4,59.6C198.8,286,179.6,309.1,149.9,309.1z"/>
	<polyline class="st1" points="437.6,299.9 437.6,346.8 390.7,346.8 	"/>
</g>
</svg>
