<?xml version="1.0" encoding="utf-8"?>
<!-- Generator: Adobe Illustrator 21.0.2, SVG Export Plug-In . SVG Version: 6.00 Build 0)  -->
<!DOCTYPE svg PUBLIC "-//W3C//DTD SVG 1.1//EN" "http://www.w3.org/Graphics/SVG/1.1/DTD/svg11.dtd">
<svg version="1.1" id="Layer_1" xmlns="http://www.w3.org/2000/svg" xmlns:xlink="http://www.w3.org/1999/xlink" x="0px" y="0px"
	 width="506px" height="168px" viewBox="0 0 506 168" style="enable-background:new 0 0 506 168;" xml:space="preserve">
<style type="text/css">
	.st0{fill:#003649;}
	.st1{fill:#FFFFFF;}
	.st2{fill:#00A99D;}
	.st3{fill:#00232D;}
	.st4{fill:#004C6D;}
	.st5{fill:#005F93;}
	.st6{fill:#0071BC;}
	.st7{fill:#0080B4;}
	.st8{fill:#0097A7;}
</style>
<g>
	<rect x="17.4" y="20.3" class="st0" width="471.2" height="127.3"/>
	<path class="st1" d="M99.2,115.7c-3.5,3.2-7.6,5.8-12.2,7.7v2.4h24.7V94.2C109.7,102.7,105.5,110.1,99.2,115.7z"/>
	<path class="st1" d="M150.9,42.3l-17.8,30.8l-17.8-30.8H86.9v2c4.5,1.9,8.5,4.4,11.9,7.5c7.7,7.1,12.1,16.9,12.6,28.4l21.7,23.8
		l22.8-25v44.6h23.5V42.3H150.9z"/>
	<path class="st1" d="M96.6,53.4c-2.8-2.6-6.1-4.7-9.7-6.4c-6.5-3.1-14.2-4.6-22.8-4.6H28v81.4h35c9,0,17.1-1.7,23.9-4.9
		c3.5-1.7,6.7-3.7,9.4-6.2c8-7.2,12.3-17.5,12.3-29.6C108.6,70.8,104.5,60.6,96.6,53.4z M64.9,106H52.2V60.1h11.4
		c12.1,0,20.3,9.3,20.3,23.1C83.9,97,76.4,106,64.9,106z"/>
	<polyline class="st0" points="176.4,102.4 176.4,120.6 158.3,120.6 	"/>
	<g>
		<path class="st1" d="M200.3,43c10.9,0,18,6.5,18,16.5c0,10.1-7.2,16.6-18.4,16.6h-14.4V43H200.3z M196.5,67.6h4.1
			c4,0,6.5-3.1,6.5-8c0-4.9-2.8-8.1-7-8.1h-3.6V67.6z"/>
		<path class="st1" d="M256.1,59.5c0,9.8-7.6,17-18.2,17c-10.5,0-18.2-7.2-18.2-17c0-9.8,7.6-16.9,18.2-16.9
			C248.4,42.7,256.1,49.7,256.1,59.5z M231,59.6c0,4.5,3.3,7.9,7.1,7.9c3.8,0,6.8-3.4,6.8-7.9s-3-7.8-6.8-7.8
			C234.2,51.8,231,55,231,59.6z"/>
		<path class="st1" d="M287.4,76.1l-4.6-19.8l-4.7,19.8h-11.3L256.1,43h11.7l5,21.7l4.9-21.7l10.7,0l5,21.7l4.9-21.7h11.2
			l-10.8,33.1H287.4z"/>
		<path class="st1" d="M334.6,76.1l-13-16.9v16.9h-10V43h9.2l13.1,17V43h9.9v33.1H334.6z"/>
		<path class="st1" d="M359.5,51.3v4.1h15.5v8.3h-15.5v4.1h17.5v8.3h-28.4V43h28v8.3H359.5z"/>
		<path class="st1" d="M391.2,71.4l-1.7,4.7h-11.2l14-33.1h11.2l13.5,33.1h-11.7l-1.7-4.7H391.2z M397.5,53.9l-3.5,9.7h6.9
			L397.5,53.9z"/>
		<path class="st1" d="M447.6,46.4l-4,8.3c-3.4-1.8-8.5-3.9-11.4-3.9c-1.2,0-2,0.4-2,1.4c0,4.2,17.1,1.6,17.1,13.5
			c0,7.4-6.5,10.6-13.9,10.6c-5.8,0-12.2-1.9-16.6-5.3l4.1-8.2c3.4,2.8,9.3,5.1,12.6,5.1c1.6,0,2.6-0.5,2.6-1.7
			c0-4.3-17.1-1.5-17.1-13.1c0-6.6,5.6-10.8,14.2-10.8C438.4,42.5,443.8,44.1,447.6,46.4z"/>
		<path class="st1" d="M468.4,51.6v24.4h-11V51.6h-9.4V43h29.8v8.6H468.4z"/>
	</g>
	<g>
		<path class="st1" d="M219.3,123.4v-21.9l-6.8,18h-8.6l-6.8-18v21.9h-11.5V83.5h13.9l8.7,20.8l8.7-20.8h13.9v39.9H219.3z"/>
		<path class="st1" d="M248.7,117.7l-2,5.6h-13.5L250,83.5h13.5l16.2,39.9h-14.1l-2-5.6H248.7z M256.4,96.6l-4.2,11.7h8.3
			L256.4,96.6z"/>
		<path class="st1" d="M300.2,113h-5v10.4h-13.2V83.5h19.3c10.8,0,17,5.2,17,14.3c0,5.8-2.2,10.1-6.3,12.6l7.9,13H305L300.2,113z
			 M301.4,103c2.8,0,4.5-1.8,4.5-4.8c0-3-1.7-4.7-4.5-4.7h-6.1v9.5H301.4z"/>
		<path class="st1" d="M340.4,109.6l-3.9,4.3v9.4h-13.2V83.5h13.2v13.8l11.9-13.8h15.2l-14.2,16l15.1,23.8h-15.8L340.4,109.6z"/>
		<path class="st1" d="M380.6,93.5v4.9h18.7v10h-18.7v5h21.1v10h-34.3V83.5h33.8v10H380.6z"/>
		<path class="st1" d="M428.6,93.9v29.5h-13.2V93.9h-11.3V83.5H440v10.4H428.6z"/>
		<path class="st1" d="M477.8,87.6l-4.8,10c-4-2.2-10.2-4.7-13.7-4.7c-1.5,0-2.4,0.5-2.4,1.6c0,5,20.7,1.9,20.7,16.3
			c0,8.9-7.8,12.8-16.8,12.8c-6.9,0-14.7-2.3-20-6.4l4.9-9.9c4.1,3.4,11.2,6.2,15.2,6.2c1.9,0,3.2-0.6,3.2-2
			c0-5.2-20.7-1.8-20.7-15.8c0-8,6.7-13,17.1-13C466.8,82.9,473.3,84.8,477.8,87.6z"/>
	</g>
</g>
</svg>
