<?xml version="1.0" encoding="utf-8"?>
<!-- Generator: Adobe Illustrator 21.0.2, SVG Export Plug-In . SVG Version: 6.00 Build 0)  -->
<!DOCTYPE svg PUBLIC "-//W3C//DTD SVG 1.1//EN" "http://www.w3.org/Graphics/SVG/1.1/DTD/svg11.dtd">
<svg version="1.1" id="Layer_1" xmlns="http://www.w3.org/2000/svg" xmlns:xlink="http://www.w3.org/1999/xlink" x="0px" y="0px"
	 width="500px" height="196px" viewBox="0 0 500 196" style="enable-background:new 0 0 500 196;" xml:space="preserve">
<style type="text/css">
	.st0{fill:#003649;}
	.st1{fill:#FFFFFF;}
	.st2{fill:#00A99D;}
	.st3{fill:#00232D;}
	.st4{fill:#004C6D;}
	.st5{fill:#005F93;}
	.st6{fill:#0071BC;}
	.st7{fill:#0080B4;}
	.st8{fill:#0097A7;}
</style>
<g>
	<g>
		<path class="st2" d="M190,57.5c11.5,0,18.9,6.8,18.9,17.4c0,10.6-7.6,17.4-19.4,17.4h-15.1V57.5H190z M186,83.4h4.3
			c4.2,0,6.9-3.3,6.9-8.4c0-5.2-2.9-8.5-7.4-8.5H186V83.4z"/>
		<path class="st2" d="M248.7,74.9c0,10.3-8.1,17.9-19.1,17.9c-11.1,0-19.1-7.6-19.1-17.9c0-10.3,8.1-17.7,19.1-17.7
			C240.6,57.2,248.7,64.6,248.7,74.9z M222.3,74.9c0,4.8,3.5,8.3,7.5,8.3c4,0,7.2-3.5,7.2-8.3s-3.2-8.2-7.2-8.2
			C225.7,66.7,222.3,70.2,222.3,74.9z"/>
		<path class="st2" d="M281.7,92.3l-4.8-20.8l-5,20.8H260l-11.3-34.8H261l5.3,22.9l5.2-22.8l11.2,0l5.3,22.9l5.2-22.9h11.8
			l-11.4,34.8H281.7z"/>
		<path class="st2" d="M331.4,92.3l-13.7-17.8v17.8h-10.5V57.5h9.6l13.8,17.9V57.5h10.4v34.8H331.4z"/>
		<path class="st2" d="M357.6,66.2v4.3h16.3v8.7h-16.3v4.3H376v8.7H346V57.5h29.5v8.7H357.6z"/>
		<path class="st2" d="M391,87.4l-1.8,4.9h-11.8l14.7-34.8h11.8l14.2,34.8h-12.3l-1.7-4.9H391z M397.7,69L394,79.2h7.3L397.7,69z"/>
		<path class="st2" d="M450.4,61.1l-4.2,8.7c-3.5-1.9-8.9-4.1-12-4.1c-1.3,0-2.1,0.4-2.1,1.4c0,4.4,18,1.6,18,14.3
			c0,7.8-6.8,11.2-14.7,11.2c-6.1,0-12.8-2-17.4-5.6l4.3-8.6c3.6,3,9.7,5.4,13.3,5.4c1.7,0,2.8-0.5,2.8-1.8c0-4.5-18-1.5-18-13.8
			c0-7,5.9-11.3,14.9-11.3C440.7,57,446.4,58.6,450.4,61.1z"/>
		<path class="st2" d="M472.3,66.6v25.7h-11.5V66.6h-9.9v-9.1h31.4v9.1H472.3z"/>
	</g>
	<g>
		<path class="st2" d="M210.5,138.6v-23l-7.2,18.9h-9.1l-7.2-18.9v23H175V96.6h14.7l9.2,21.9l9.2-21.9h14.7v41.9H210.5z"/>
		<path class="st2" d="M241.4,132.7l-2.2,5.9h-14.2l17.7-41.9H257l17.1,41.9h-14.8l-2.1-5.9H241.4z M249.5,110.5l-4.4,12.3h8.7
			L249.5,110.5z"/>
		<path class="st2" d="M295.6,127.7h-5.2v10.9h-13.9V96.6h20.3c11.4,0,17.9,5.4,17.9,15c0,6.1-2.3,10.6-6.6,13.3l8.3,13.6h-15.7
			L295.6,127.7z M296.7,117.2c3,0,4.7-1.9,4.7-5.1c0-3.1-1.7-4.9-4.7-4.9h-6.4v10H296.7z"/>
		<path class="st2" d="M337.8,124.2l-4.1,4.5v9.9h-13.9V96.6h13.9v14.5l12.5-14.5h16l-15,16.9l15.9,25.1h-16.6L337.8,124.2z"/>
		<path class="st2" d="M380,107.2v5.1h19.6v10.5H380v5.2h22.1v10.5h-36V96.6h35.5v10.5H380z"/>
		<path class="st2" d="M430.5,107.6v31h-13.9v-31h-11.9V96.6h37.8v10.9H430.5z"/>
		<path class="st2" d="M482.2,101l-5,10.5c-4.2-2.3-10.8-4.9-14.4-4.9c-1.6,0-2.6,0.5-2.6,1.7c0,5.3,21.7,2,21.7,17.2
			c0,9.3-8.2,13.5-17.6,13.5c-7.3,0-15.4-2.5-21-6.7l5.1-10.4c4.3,3.6,11.7,6.5,16,6.5c2,0,3.3-0.7,3.3-2.2
			c0-5.4-21.7-1.9-21.7-16.6c0-8.4,7.1-13.6,18-13.6C470.6,96,477.5,98,482.2,101z"/>
	</g>
	<g>
		<path class="st2" d="M88.1,129.2c-3.3,3-7.2,5.4-11.5,7.2v2.2h23.1v-29.6C98,117.1,94,123.9,88.1,129.2z"/>
		<path class="st2" d="M140.7,57.2L122.9,88l-17.8-30.8H76.7v2c4.5,1.9,8.5,4.4,11.9,7.5c7.7,7.1,12.1,16.9,12.7,28.4l21.7,23.8
			l22.8-25v44.6h23.5V57.2H140.7z"/>
		<path class="st2" d="M86.3,68.3c-2.8-2.6-6.1-4.7-9.7-6.4c-6.5-3.1-14.2-4.6-22.8-4.6H17.8v81.4h35c9,0,17.1-1.7,23.9-4.9
			c3.5-1.7,6.7-3.7,9.4-6.2c8-7.2,12.3-17.5,12.3-29.6C98.4,85.7,94.2,75.5,86.3,68.3z M54.6,120.8H41.9V75h11.4
			c12.2,0,20.3,9.3,20.3,23.1C73.6,111.9,66.2,120.8,54.6,120.8z"/>
		<polyline class="st1" points="166.2,117.3 166.2,135.5 148,135.5 		"/>
	</g>
</g>
</svg>
